<svg width="275" height="284" viewBox="0 0 275 284" fill="none" xmlns="http://www.w3.org/2000/svg">
<path opacity="0.02" d="M124.309 0.799998V8.79999C115.776 9.06665 109.243 10.1333 104.709 12C100.443 13.6 97.6427 16.8 96.3094 21.6C94.976 26.1333 94.3094 33.3333 94.3094 43.2V241.6C94.3094 251.2 94.976 258.4 96.3094 263.2C97.9094 268 100.843 271.2 105.109 272.8C109.376 274.4 115.776 275.467 124.309 276V284C117.109 283.467 108.043 283.2 97.1094 283.2C86.176 282.933 75.1094 282.8 63.9094 282.8C50.8427 282.8 38.7094 282.933 27.5094 283.2C16.576 283.2 7.64271 283.467 0.709376 284V276C9.24271 275.467 15.6427 274.4 19.9094 272.8C24.176 271.2 26.976 268 28.3094 263.2C29.9094 258.4 30.7094 251.2 30.7094 241.6V43.2C30.7094 33.3333 29.9094 26.1333 28.3094 21.6C26.976 16.8 24.0427 13.6 19.5094 12C15.2427 10.1333 8.97604 9.06665 0.709376 8.79999V0.799998C7.64271 1.06666 16.576 1.33332 27.5094 1.59999C38.7094 1.86665 50.8427 1.99998 63.9094 1.99998C75.1094 1.99998 86.176 1.86665 97.1094 1.59999C108.043 1.33332 117.109 1.06666 124.309 0.799998ZM274.7 0.799998V8.79999C266.167 9.06665 259.633 10.1333 255.1 12C250.833 13.6 248.033 16.8 246.7 21.6C245.367 26.1333 244.7 33.3333 244.7 43.2V241.6C244.7 251.2 245.367 258.4 246.7 263.2C248.3 268 251.233 271.2 255.5 272.8C259.767 274.4 266.167 275.467 274.7 276V284C267.5 283.467 258.433 283.2 247.5 283.2C236.567 282.933 225.5 282.8 214.3 282.8C201.233 282.8 189.1 282.933 177.9 283.2C166.967 283.2 158.033 283.467 151.1 284V276C159.633 275.467 166.033 274.4 170.3 272.8C174.567 271.2 177.367 268 178.7 263.2C180.3 258.4 181.1 251.2 181.1 241.6V43.2C181.1 33.3333 180.3 26.1333 178.7 21.6C177.367 16.8 174.433 13.6 169.9 12C165.633 10.1333 159.367 9.06665 151.1 8.79999V0.799998C158.033 1.06666 166.967 1.33332 177.9 1.59999C189.1 1.86665 201.233 1.99998 214.3 1.99998C225.5 1.99998 236.567 1.86665 247.5 1.59999C258.433 1.33332 267.5 1.06666 274.7 0.799998Z" fill="white"/>
</svg>
